<svg width="112" height="150" viewBox="0 0 112 150" fill="none" xmlns="http://www.w3.org/2000/svg">
<path d="M10.866 137.959L0.794983 29.458H111.506L101.435 137.918L56.0652 150L10.866 137.959Z" fill="#E44D26"/>
<path d="M56.1507 140.792L92.796 131.042L101.435 38.332H56.1507V140.792Z" fill="#F16529"/>
<path d="M56.1507 78.583H37.7853L36.5276 64.957H56.1507V51.668H56.108H21.3737L21.7217 55.207L25.1072 91.875H56.1507V78.583Z" fill="#EBEBEB"/>
<path d="M56.1507 113.124L56.108 113.168L40.6518 109.125L39.6536 98.543H32.1407H25.7574L27.6684 119.417L56.108 126.999L56.1507 126.958V113.124Z" fill="#EBEBEB"/>
<path d="M11.0828 0H18.1164V6.66797H24.5424V0H31.576V20.209H24.5424V13.418H18.1164V20.209H11.0828V0Z" fill="black"/>
<path d="M40.8686 6.70898H34.6593V0H54.1115V6.70898H47.9021V20.209H40.8686V6.70898Z" fill="black"/>
<path d="M57.2375 0H64.5763L69.0914 7.125L73.6034 0H80.9422V20.209H73.9514V10.207L69.0883 17.4141H68.9571L64.094 10.207V20.25H57.1917V0H57.2375Z" fill="black"/>
<path d="M84.459 0H91.4925V13.541H101.393V20.209H84.459V0Z" fill="black"/>
<path d="M56.108 78.583V91.875H73.1699L71.5641 109.125L56.108 113.124V126.999L84.5017 119.417L84.7184 117.167L87.9757 82.166L88.3238 78.583H84.5902H56.108Z" fill="white"/>
<path d="M56.108 51.668V59.918V64.916V64.957H89.5388H89.5815L89.8868 61.957L90.4943 55.207L90.8423 51.668H56.108Z" fill="white"/>
</svg>
