<svg width="151" height="150" viewBox="0 0 151 150" fill="none" xmlns="http://www.w3.org/2000/svg">
<path d="M75.3555 66.0786C82.9388 66.0786 89.0862 61.0488 89.0862 54.8441C89.0862 48.6394 82.9388 43.6095 75.3555 43.6095C67.7722 43.6095 61.6248 48.6394 61.6248 54.8441C61.6248 61.0488 67.7722 66.0786 75.3555 66.0786Z" fill="#61DAFB"/>
<path d="M75.3555 96.1583C86.1334 104.735 96.7637 109.809 105.327 109.809C108.132 109.809 110.79 109.326 113.004 108.238C120.682 104.614 123.487 95.5543 120.829 82.6285C120.386 80.3332 119.796 78.038 119.058 75.622C122.011 74.8972 124.668 74.1723 127.326 73.4475C142.238 68.7363 150.506 62.213 150.506 55.0857C150.506 47.8375 142.238 41.3142 127.326 36.7238C124.668 35.8782 122.011 35.1533 119.058 34.5493C119.796 32.1333 120.386 29.8381 120.829 27.5428C123.339 14.3754 120.534 5.19448 112.857 1.57042C110.642 0.483208 107.984 0 105.179 0C96.7637 0 85.9858 5.07368 75.2079 13.6506C64.5776 5.07368 53.9474 0 45.3841 0C42.5789 0 39.9213 0.483208 37.7067 1.57042C30.0293 5.19448 27.2241 14.2546 29.8816 27.1804C30.3246 29.4757 30.9151 31.7709 31.6533 34.1869C28.7005 34.9117 26.0429 35.6366 23.3854 36.3614C8.47348 41.0726 0.205505 47.5959 0.205505 54.7232C0.205505 61.9714 8.47348 68.4947 23.3854 73.0851C26.0429 73.9307 28.7005 74.6556 31.6533 75.2596C30.9151 77.6756 30.3246 79.9708 29.8816 82.2661C27.3717 95.1919 30.1769 104.373 37.7067 107.876C39.9213 108.963 42.5789 109.446 45.3841 109.446C53.9474 109.688 64.5776 104.614 75.3555 96.1583ZM67.0875 79.85C69.7451 79.9708 72.5503 79.9708 75.3555 79.9708C78.1607 79.9708 80.9659 79.9708 83.6235 79.85C80.9659 82.7493 78.1607 85.4069 75.3555 87.9438C72.5503 85.4069 69.7451 82.7493 67.0875 79.85ZM48.7799 67.4074C50.2563 69.4611 51.5851 71.3939 53.2091 73.3267C48.6322 72.8435 44.3506 72.2395 40.2166 71.5147C41.5454 68.2531 43.0218 64.8706 44.7935 61.4882C45.9747 63.421 47.3034 65.4746 48.7799 67.4074ZM40.2166 38.2942C44.3506 37.5694 48.6322 36.9654 53.2091 36.4822C51.7327 38.415 50.2563 40.3478 48.7799 42.4015C47.3034 44.4551 45.9747 46.3879 44.7935 48.4416C42.8742 44.9383 41.3977 41.5558 40.2166 38.2942ZM48.3369 54.844C50.2563 51.5824 52.3233 48.3208 54.6856 45.0591C56.9002 41.9183 59.4101 38.7774 61.92 35.6366C66.3493 35.3949 70.7786 35.2741 75.3555 35.2741C80.0801 35.2741 84.5093 35.3949 88.791 35.6366C91.4485 38.7774 93.8108 41.9183 96.0254 45.0591C98.3877 48.3208 100.455 51.5824 102.374 54.844C100.455 58.1057 98.3877 61.3673 96.0254 64.629C93.8108 67.7698 91.3009 70.9107 88.791 74.0515C84.3617 74.2932 79.9324 74.414 75.3555 74.414C70.631 74.414 66.2017 74.2932 61.92 74.0515C59.2625 70.9107 56.9002 67.7698 54.6856 64.629C52.3233 61.3673 50.2563 58.1057 48.3369 54.844ZM106.065 48.3207L102.079 42.2807C100.602 40.227 99.2736 38.2942 97.6495 36.3614C102.226 36.8446 106.508 37.4486 110.642 38.1734C109.313 41.5558 107.837 44.9383 106.065 48.3207ZM106.065 61.3674C107.837 64.7498 109.313 68.1323 110.642 71.3939C106.508 72.1187 102.226 72.7227 97.6495 73.2059C99.1259 71.2731 100.602 69.3403 102.079 67.2866C103.408 65.4746 104.736 63.421 106.065 61.3674ZM109.461 103.286C108.28 103.89 106.803 104.131 105.179 104.131C97.9448 104.131 88.9386 99.2991 80.0801 92.051C84.3617 88.3062 88.4957 84.0781 92.6297 79.3668C99.5689 78.8836 106.213 78.038 112.414 76.83C113.152 79.0044 113.595 81.1789 114.038 83.3533C116.105 93.6214 114.481 100.99 109.461 103.286ZM117.138 39.623C133.674 43.4887 143.566 49.408 143.566 54.844C143.566 59.5553 136.775 64.2666 124.816 68.0115C122.453 68.7363 119.796 69.4611 117.138 70.0651C115.219 65.1122 112.857 60.0385 109.904 54.844C112.857 49.6496 115.367 44.5759 117.138 39.623ZM105.327 5.55689C106.951 5.55689 108.28 5.79849 109.609 6.4025C114.481 8.69773 116.252 15.9458 114.185 26.3348C113.743 28.3884 113.152 30.5629 112.561 32.8581C106.36 31.7709 99.7165 30.9253 92.7773 30.3213C88.791 25.61 84.5093 21.3819 80.2277 17.6371C89.0863 10.5098 98.0924 5.55689 105.327 5.55689ZM83.6235 29.8381C80.9659 29.7173 78.1607 29.7173 75.3555 29.7173C72.5503 29.7173 69.7451 29.7173 67.0875 29.8381C69.7451 26.9388 72.5503 24.2812 75.3555 21.7443C78.1607 24.2812 80.9659 27.0596 83.6235 29.8381ZM41.2501 6.4025C42.4312 5.79849 43.9077 5.55689 45.5317 5.55689C52.7662 5.55689 61.7724 10.389 70.6309 17.6371C66.3493 21.3819 62.2153 25.61 58.0813 30.3213C51.1421 30.8045 44.4982 31.6501 38.2973 32.8581C37.559 30.6837 37.1161 28.5092 36.6732 26.3348C34.6062 16.0666 36.2303 8.81854 41.2501 6.4025ZM33.5727 70.0651C17.0367 66.1994 7.1447 60.2801 7.1447 54.844C7.1447 50.1328 13.9363 45.4215 25.8953 41.6766C28.2576 40.9518 30.9151 40.227 33.5727 39.623C35.492 44.5759 37.8543 49.6496 40.8072 54.844C37.8543 60.0385 35.3444 65.233 33.5727 70.0651ZM36.6732 83.3533C37.1161 81.2997 37.7067 79.1252 38.2973 76.83C44.4982 77.9172 51.1421 78.7628 58.0813 79.3668C62.0677 84.0781 66.3493 88.3062 70.6309 92.051C61.7724 99.1783 52.7662 104.131 45.5317 104.131C43.9077 104.131 42.5789 103.89 41.2501 103.286C36.2303 100.99 34.6062 93.6214 36.6732 83.3533ZM30.4722 133.124C33.7203 129.862 33.868 126.238 32.0963 122.614C30.3246 118.99 26.6335 117.299 22.0566 117.178C16.5938 117.057 10.9834 117.178 5.52063 117.178H4.48714V148.465H8.91641V136.627H15.8556C16.7415 136.627 17.4797 136.869 17.9226 137.473L26.7811 148.707C26.9288 148.949 27.3717 149.311 27.667 149.311H33.425C29.8816 144.841 26.4859 140.613 22.9424 136.265C26.0429 135.902 28.7005 135.056 30.4722 133.124ZM8.91641 132.882V120.923H10.5405C13.9363 120.923 17.4797 120.802 20.8754 121.043C24.8618 121.164 27.667 123.701 27.667 126.963C27.667 130.224 24.4189 132.761 20.4325 132.882C16.8891 133.003 13.3457 132.882 8.91641 132.882ZM66.054 134.452C63.6917 125.996 54.2426 123.822 47.0082 126.48C41.3977 128.533 38.8878 132.52 38.7402 137.473C38.5925 141.217 39.9213 144.6 43.4647 147.137C47.4511 150.036 52.3233 150.398 57.3431 149.674C60.1483 149.19 62.6583 148.103 64.5776 146.412C63.8394 145.566 63.1012 144.721 62.363 143.996C58.229 146.895 53.6521 147.861 48.6322 145.929C45.3841 144.6 43.76 141.338 43.4647 138.922H66.3493V137.352C66.497 136.265 66.3493 135.298 66.054 134.452ZM43.76 136.385C43.3171 132.761 47.7464 128.896 52.6186 128.896C58.229 128.775 61.7724 131.553 61.92 136.385H43.76ZM89.0863 125.876C86.8716 125.513 84.5093 125.392 82.2947 125.513C78.7513 125.755 75.6508 127.084 73.1409 129.258C73.8791 130.104 74.4697 130.949 75.3555 131.916C75.6508 131.674 75.9461 131.432 76.2414 131.312C78.6036 129.5 81.4089 128.533 84.8046 128.775C87.4622 128.896 89.9721 129.62 90.7103 131.795C91.3009 133.486 91.1533 135.298 91.3009 137.11C90.858 137.11 90.7103 136.989 90.5627 136.869C87.0193 134.452 83.0329 133.969 78.7513 134.815C74.7649 135.66 72.255 138.197 71.9597 141.459C71.6644 145.204 73.7314 147.982 77.7178 149.311C80.2277 150.157 83.0329 150.157 85.6905 149.674C87.7575 149.311 88.6433 148.345 91.5962 147.016V148.586H95.7302C95.7302 143.754 95.8778 137.835 95.7302 132.278C95.7302 128.775 93.2202 126.6 89.0863 125.876ZM91.1532 141.097C91.0056 141.459 91.1532 141.821 91.1532 142.184C91.1532 144.721 90.415 145.566 87.4622 146.533C85.3952 147.137 83.1806 147.378 80.9659 146.774C78.456 146.17 76.6843 144.358 76.6843 142.305C76.5367 140.251 78.1607 138.197 80.6706 137.593C84.0664 136.627 87.1669 137.231 89.9721 138.922C90.858 139.526 91.4485 140.13 91.1532 141.097ZM114.185 129.137C118.024 128.171 121.568 128.775 124.225 131.432L124.668 131.674C125.702 130.949 126.587 130.224 127.769 129.379C127.326 129.016 127.178 128.775 126.883 128.412C122.601 124.668 114.185 124.184 109.018 127.204C101.784 131.553 101.931 140.009 105.475 144.479C108.87 148.707 113.743 150.157 119.501 149.553C122.896 149.19 125.702 147.861 127.916 145.566C126.883 144.841 125.849 144.117 124.816 143.271C124.52 143.513 124.373 143.633 124.225 143.875C120.239 147.499 113.595 147.137 110.051 143.271C107.984 140.976 107.542 138.318 108.132 135.66C108.427 132.64 110.347 130.224 114.185 129.137ZM144.895 145.566C144.6 145.687 144.452 145.808 144.452 145.808C143.271 146.533 142.09 146.653 140.761 146.291C139.432 145.808 139.285 144.841 139.137 143.875V130.104C139.137 129.862 139.137 130.345 139.285 129.137H144.895V125.513H138.989V119.473H134.56V125.996H130.721C130.426 125.996 129.983 126.238 129.983 126.48C129.836 127.325 129.983 127.929 129.983 129.137H134.708V144.6C134.708 146.533 135.298 148.224 137.365 149.19C139.58 150.278 143.862 150.036 145.781 148.707C146.076 148.586 146.224 148.103 146.224 147.982C145.781 147.257 145.338 146.412 144.895 145.566Z" fill="#61DAFB"/>
</svg>
