<svg width="158" height="150" viewBox="0 0 158 150" fill="none" xmlns="http://www.w3.org/2000/svg">
<g clip-path="url(#clip0_6_44)">
<path d="M0.904114 0H157.205V150H0.904114V0Z" fill="#017ACB"/>
<path d="M75.9532 55.5469H83.4508V67.9687H63.1804V123.234L62.6432 123.375C61.9105 123.562 52.2638 123.562 50.1879 123.352L48.5272 123.211V67.9687H28.2569V55.5469L34.6799 55.4766C38.1966 55.4297 47.2328 55.4297 54.7548 55.4766C62.2768 55.5234 71.8014 55.5469 75.9532 55.5469ZM133.174 117.375C130.195 120.398 126.995 122.086 121.671 123.469C119.351 124.078 118.96 124.102 113.734 124.078C108.508 124.055 108.093 124.055 105.553 123.422C98.9832 121.805 93.6836 118.641 90.0692 114.164C89.0434 112.898 87.3583 110.273 87.3583 109.945C87.3583 109.852 87.6025 109.641 87.92 109.5C88.2375 109.359 88.8969 108.961 89.4342 108.656C89.9715 108.352 90.9483 107.789 91.6077 107.461C92.2671 107.133 94.1721 106.055 95.8328 105.094C97.4935 104.133 99.0076 103.359 99.1786 103.359C99.3495 103.359 99.667 103.687 99.9113 104.086C101.377 106.453 104.796 109.477 107.213 110.508C108.703 111.117 112 111.797 113.588 111.797C115.053 111.797 117.739 111.187 119.18 110.555C120.719 109.875 121.5 109.195 122.428 107.836C123.063 106.875 123.137 106.617 123.112 104.789C123.112 103.102 123.015 102.633 122.526 101.859C121.158 99.7031 119.302 98.5781 111.78 95.3906C104.014 92.0859 100.522 90.1172 97.6888 87.4688C95.5885 85.5 95.1734 84.9609 93.8546 82.5C92.145 79.3359 91.9252 78.3047 91.9008 73.5937C91.8764 70.2891 91.9497 69.2109 92.316 68.0859C92.8288 66.3984 94.4896 63.1406 95.2466 62.3203C96.8096 60.5625 97.3714 60.0234 98.4704 59.1562C101.792 56.5312 106.969 54.7969 111.927 54.6328C112.489 54.6328 114.345 54.7266 116.079 54.8437C121.061 55.2422 124.455 56.4141 127.728 58.9219C130.195 60.7969 133.931 65.2031 133.565 65.7891C133.321 66.1406 123.576 72.375 122.941 72.5625C122.551 72.6797 122.282 72.5391 121.745 71.9297C118.423 68.1094 117.08 67.2891 113.856 67.1016C111.561 66.9609 110.339 67.2187 108.801 68.2031C107.189 69.2344 106.408 70.8047 106.408 72.9844C106.432 76.1719 107.702 77.6719 112.391 79.8984C115.419 81.3281 118.008 82.5 118.203 82.5C118.496 82.5 124.773 85.5 126.409 86.4375C134.029 90.7266 137.131 95.1328 137.936 102.727C138.523 108.445 136.837 113.672 133.174 117.375Z" fill="white"/>
</g>
<defs>
<clipPath id="clip0_6_44">
<rect width="156.301" height="150" fill="white" transform="translate(0.904114)"/>
</clipPath>
</defs>
</svg>
