<svg width="55" height="40" viewBox="0 0 55 40" fill="none" xmlns="http://www.w3.org/2000/svg">
<path d="M4.125 40C3.025 40 2.0625 39.625 1.2375 38.875C0.4125 38.125 0 37.25 0 36.25V3.75C0 2.75 0.4125 1.875 1.2375 1.125C2.0625 0.375 3.025 0 4.125 0H50.875C51.975 0 52.9375 0.375 53.7625 1.125C54.5875 1.875 55 2.75 55 3.75V36.25C55 37.25 54.5875 38.125 53.7625 38.875C52.9375 39.625 51.975 40 50.875 40H4.125ZM27.5 21.125L4.125 7.1875V36.25H50.875V7.1875L27.5 21.125ZM27.5 17.375L50.6 3.75H4.46875L27.5 17.375ZM4.125 7.1875V3.75V36.25V7.1875Z" fill="#7234ED"/>
</svg>
