<svg width="112" height="150" viewBox="0 0 112 150" fill="none" xmlns="http://www.w3.org/2000/svg">
<path d="M10.8851 137.952L0.807632 29.4785H111.542L101.454 137.935L56.1069 150L10.8851 137.952Z" fill="#264DE4"/>
<path d="M92.8169 131.029L101.438 38.3478H56.1747V140.778L92.8169 131.029Z" fill="#2965F1"/>
<path d="M23.91 78.5792L25.1525 91.8829H56.1746V78.5792H23.91Z" fill="#EBEBEB"/>
<path d="M22.6736 64.9559H56.1746V51.6519H56.1267H21.4135L22.6736 64.9559Z" fill="#EBEBEB"/>
<path d="M56.1108 126.989L56.1746 126.972V113.131L56.1139 113.146L40.6749 109.145L39.6879 98.535H32.1857H25.7719L27.7141 119.424L56.1108 126.989Z" fill="#EBEBEB"/>
<path d="M26.8681 0H43.6583V6.73828H33.8895V13.4766H43.6583V20.2148H26.8681V0Z" fill="black"/>
<path d="M47.0164 0H63.8065V5.85937H54.0377V7.03125H63.8065V20.5078H47.0164V14.3555H56.7852V13.1836H47.0164V0Z" fill="black"/>
<path d="M67.1646 0H83.9548V5.85937H74.1859V7.03125H83.9548V20.5078H67.1646V14.3555H76.9334V13.1836H67.1646V0Z" fill="black"/>
<path d="M90.8531 51.6519H56.1267V64.9559H75.6607L74.3993 78.5792H56.1267V91.8829H73.1971L71.588 109.137L56.1267 113.142V126.983L84.5461 119.424L84.7546 117.176L88.0122 82.1517L88.3504 78.5792L90.8531 51.6519Z" fill="white"/>
</svg>
