<svg width="157" height="150" viewBox="0 0 157 150" fill="none" xmlns="http://www.w3.org/2000/svg">
<path d="M153.857 68.3437L85.62 2.83096C84.6856 1.93347 83.5763 1.22151 82.3552 0.735761C81.1342 0.250015 79.8254 0 78.5037 0C77.182 0 75.8733 0.250015 74.6522 0.735761C73.4312 1.22151 72.3218 1.93347 71.3875 2.83096L57.2233 16.4296L75.1971 33.6859C79.378 32.2791 84.1645 33.2404 87.4955 36.4384C89.0812 37.9635 90.1881 39.886 90.6899 41.9863C91.1917 44.0866 91.0681 46.2801 90.3333 48.3161L107.658 64.9487C111.848 63.5607 116.683 64.4564 120.029 67.6778C121.141 68.7459 122.024 70.0139 122.625 71.4093C123.227 72.8047 123.537 74.3002 123.537 75.8105C123.536 77.3208 123.226 78.8163 122.624 80.2116C122.022 81.6068 121.139 82.8745 120.027 83.9423C118.914 85.0101 117.594 85.857 116.14 86.4348C114.687 87.0126 113.129 87.3098 111.556 87.3096C109.983 87.3094 108.425 87.0117 106.972 86.4335C105.519 85.8554 104.198 85.008 103.086 83.9399C99.5693 80.5637 98.6999 75.5932 100.478 71.4339L84.3208 55.922V96.7415C85.4937 97.2987 86.5656 98.0333 87.4955 98.9172C88.6077 99.985 89.49 101.253 90.0919 102.648C90.6938 104.043 91.0036 105.538 91.0036 107.048C91.0036 108.558 90.6938 110.054 90.0919 111.449C89.49 112.844 88.6077 114.112 87.4955 115.179C86.3833 116.247 85.063 117.094 83.6098 117.672C82.1567 118.25 80.5992 118.547 79.0263 118.547C77.4535 118.547 75.896 118.25 74.4428 117.672C72.9897 117.094 71.6693 116.247 70.5571 115.179C69.4436 114.112 68.5602 112.845 67.9575 111.45C67.3548 110.054 67.0445 108.559 67.0445 107.048C67.0445 105.538 67.3548 104.042 67.9575 102.647C68.5602 101.252 69.4436 99.9843 70.5571 98.9172C71.7147 97.8106 72.9992 96.9712 74.4791 96.4085V55.2093C73.053 54.6466 71.7147 53.8166 70.5571 52.7005C68.8754 51.0879 67.7319 49.0309 67.2727 46.7919C66.8134 44.5529 67.059 42.2333 67.9783 40.1288L50.2486 23.1164L3.45803 67.992C2.52248 68.8891 1.7803 69.9545 1.27392 71.1273C0.767538 72.3 0.506897 73.557 0.506897 74.8265C0.506897 76.096 0.767538 77.353 1.27392 78.5258C1.7803 79.6985 2.52248 80.7639 3.45803 81.661L71.7 147.169C72.6344 148.067 73.7438 148.779 74.9648 149.264C76.1859 149.75 77.4946 150 78.8163 150C80.138 150 81.4468 149.75 82.6678 149.264C83.8888 148.779 84.9982 148.067 85.9326 147.169L153.857 82.0596C154.793 81.1624 155.535 80.0971 156.041 78.9243C156.548 77.7516 156.808 76.4946 156.808 75.2251C156.808 73.9556 156.548 72.6985 156.041 71.5258C155.535 70.3531 154.793 69.2877 153.857 68.3906" fill="#F03C2E"/>
</svg>
