<svg width="55" height="55" viewBox="0 0 55 55" fill="none" xmlns="http://www.w3.org/2000/svg">
<path d="M18.8805 55C19.7307 54.6246 20.3261 53.7574 20.3261 52.7478V46.1237C20.3261 45.882 20.3452 45.6305 20.3751 45.3754C20.3584 45.3803 20.3428 45.384 20.3261 45.3876C20.3261 45.3876 16.7391 45.3876 16.0217 45.3876C14.2283 45.3876 12.6739 44.6516 11.9565 43.1796C11.1196 41.5849 10.7609 38.8862 8.6087 37.4141C8.25 37.1688 8.48913 36.8008 9.20652 36.8008C9.92391 36.9235 11.4783 37.9048 12.4348 39.2542C13.5109 40.6035 14.587 41.7076 16.5 41.7076C19.4736 41.7076 21.0674 41.5542 22.0263 41.0267C23.143 39.3229 24.689 38.0275 26.3043 38.0275V37.9968C19.5274 37.7736 15.1979 35.4625 13.1821 31.894C8.8 31.9455 4.98467 32.3908 2.80739 32.7613C2.73804 32.3602 2.67826 31.9566 2.62685 31.5505C4.77543 31.1874 8.41739 30.7569 12.6046 30.6747C12.4707 30.3361 12.3547 29.989 12.2566 29.6332C8.0587 29.4149 4.43587 29.5854 2.46783 29.7522C2.44391 29.3449 2.41163 28.9389 2.40685 28.5267C4.37848 28.3611 7.90326 28.1955 11.9936 28.3906C11.8991 27.7772 11.8382 27.1504 11.8382 26.4978C11.8382 24.4124 12.5555 22.2044 13.8708 20.3643C13.2729 18.279 12.436 13.8629 14.1099 12.2682C17.3382 12.2682 19.6099 13.8629 20.686 14.8442C22.7174 13.9843 24.9891 13.4936 27.5 13.4936C30.0109 13.4936 32.2826 13.9843 34.1957 14.843C35.2717 13.8616 37.5435 12.2669 40.7717 12.2669C42.5652 13.9843 41.6087 18.4004 41.0109 20.3631C42.3261 22.2031 43.0435 24.2885 42.9239 26.4966C42.9239 27.0903 42.8701 27.6632 42.7924 28.225C46.976 28.014 50.5964 28.1833 52.6015 28.3501C52.5991 28.7635 52.5621 29.1671 52.5405 29.5756C50.5426 29.4063 46.8313 29.2321 42.5461 29.4664C42.4397 29.8786 42.3105 30.2797 42.1575 30.6685C46.3973 30.725 50.1265 31.1457 52.3779 31.5137C52.3265 31.921 52.2667 32.3246 52.1974 32.7245C49.9113 32.3491 46.0147 31.91 41.5812 31.8879C39.5904 35.4183 35.3399 37.7208 28.6957 37.9895V38.0275C31.8043 38.0275 34.6739 42.8116 34.6739 46.1237V52.7478C34.6739 53.7574 35.2693 54.6246 36.1195 55C47.0728 51.2807 55 40.682 55 28.2139C55 12.657 42.6645 0 27.5 0C12.3355 0 0 12.657 0 28.2139C0 40.682 7.92717 51.2807 18.8805 55Z" fill="#5E17EB"/>
</svg>
