<svg width="38" height="30" viewBox="0 0 38 30" fill="none" xmlns="http://www.w3.org/2000/svg">
<path d="M12.0933 28.9016C12.6265 28.718 13 28.2938 13 27.8V24.56C13 24.4418 13.012 24.3188 13.0308 24.194C13.0203 24.1964 13.0105 24.1982 13 24.2C13 24.2 10.75 24.2 10.3 24.2C9.175 24.2 8.2 23.84 7.75 23.12C7.225 22.34 7 21.02 5.65 20.3C5.425 20.18 5.575 20 6.025 20C6.475 20.06 7.45 20.54 8.05 21.2C8.725 21.86 9.4 22.4 10.6 22.4C12.4653 22.4 13.465 22.325 14.0665 22.067C14.767 21.2336 15.7367 20.6 16.75 20.6V20.585C12.499 20.4758 9.78325 19.3454 8.51875 17.6C5.77 17.6252 3.37675 17.843 2.011 18.0242C1.9675 17.828 1.93 17.6306 1.89775 17.432C3.2455 17.2544 5.53 17.0438 8.1565 17.0036C8.0725 16.838 7.99975 16.6682 7.93825 16.4942C5.305 16.3874 3.0325 16.4708 1.798 16.5524C1.783 16.3532 1.76275 16.1546 1.75975 15.953C2.9965 15.872 5.2075 15.791 7.77325 15.8864C7.714 15.5864 7.67575 15.2798 7.67575 14.9606C7.67575 13.9406 8.12575 12.8606 8.95075 11.9606C8.57575 10.9406 8.05075 8.7806 9.10075 8.0006C11.1257 8.0006 12.5507 8.7806 13.2257 9.2606C14.5 8.84 15.925 8.6 17.5 8.6C19.075 8.6 20.5 8.84 21.7 9.26C22.375 8.78 23.8 8 25.825 8C26.95 8.84 26.35 11 25.975 11.96C26.8 12.86 27.25 13.88 27.175 14.96C27.175 15.2504 27.1413 15.5306 27.0925 15.8054C29.7168 15.7022 31.9877 15.785 33.2455 15.8666C33.244 16.0688 33.2208 16.2662 33.2073 16.466C31.954 16.3832 29.626 16.298 26.938 16.4126C26.8713 16.6142 26.7902 16.8104 26.6942 17.0006C29.3537 17.0282 31.693 17.234 33.1052 17.414C33.073 17.6132 33.0355 17.8106 32.992 18.0062C31.558 17.8226 29.1138 17.6078 26.3328 17.597C25.084 19.3238 22.4178 20.45 18.25 20.5814V20.6C20.2 20.6 22 22.94 22 24.56V27.8C22 28.2938 22.3735 28.718 22.9067 28.9016C29.7775 27.0824 34.75 21.8984 34.75 15.8C34.75 8.1908 27.0122 2 17.5 2C7.98775 2 0.25 8.1908 0.25 15.8C0.25 21.8984 5.2225 27.0824 12.0933 28.9016Z" fill="#5E17EB"/>
</svg>
