<svg width="157" height="150" viewBox="0 0 157 150" fill="none" xmlns="http://www.w3.org/2000/svg">
<g clip-path="url(#clip0_6_79)">
<path d="M0.602753 0H156.904V150H0.602753V0Z" fill="#F0DB4F"/>
<path d="M144.112 114.225C142.968 107.381 138.317 101.635 124.544 96.2738C119.76 94.1635 114.426 92.6523 112.837 89.173C112.272 87.1483 112.198 86.0076 112.554 84.7814C113.58 80.8032 118.527 79.5628 122.449 80.7034C124.975 81.5162 127.367 83.3842 128.809 86.3641C135.554 82.1722 135.539 82.2006 140.249 79.3205C138.525 76.754 137.604 75.5704 136.475 74.4726C132.419 70.1237 126.892 67.8851 118.052 68.0562C116.521 68.2416 114.976 68.4411 113.446 68.6266C109.033 69.696 104.828 71.9203 102.362 74.9004C94.963 82.9564 97.0728 97.058 106.076 102.861C114.946 109.249 127.976 110.704 129.641 116.678C131.26 123.993 124.039 126.359 116.863 125.518C111.574 124.463 108.632 121.882 105.452 117.191C99.5987 120.442 99.5987 120.442 93.5814 123.764C95.0078 126.759 96.5082 128.113 98.9004 130.708C110.222 141.73 138.555 141.188 143.636 124.506C143.844 123.935 145.211 120.114 144.112 114.225ZM85.5731 68.9401H70.9532C70.9532 81.0599 70.894 93.0941 70.894 105.214C70.894 112.928 71.31 120 70.0025 122.167C67.863 126.43 62.3211 125.903 59.7954 125.076C57.225 123.864 55.9175 122.139 54.4021 119.701C53.9861 119.002 53.6741 118.46 53.5699 118.417C49.6031 120.741 45.6508 123.08 41.6839 125.404C43.6601 129.297 46.572 132.676 50.3012 134.872C55.8728 138.08 63.361 139.064 71.1911 137.338C76.2872 135.912 80.6849 132.961 82.9878 128.47C86.3159 122.581 85.6028 115.452 85.5731 107.567C85.6474 94.7053 85.5731 81.8441 85.5731 68.9401Z" fill="#323330"/>
</g>
<defs>
<clipPath id="clip0_6_79">
<rect width="156.301" height="150" fill="white" transform="translate(0.602753)"/>
</clipPath>
</defs>
</svg>
