<svg width="56" height="50" viewBox="0 0 56 50" fill="none" xmlns="http://www.w3.org/2000/svg">
<path d="M6.66311 0C2.99905 0 0 2.67915 0 5.95238V44.0476C0 47.3209 2.99905 50 6.66311 50H49.307C52.9711 50 55.9701 47.3209 55.9701 44.0476V5.95238C55.9701 2.67915 52.9711 0 49.307 0H6.66311ZM6.66311 2.38095H49.307C51.5305 2.38095 53.3049 3.96609 53.3049 5.95238V44.0476C53.3049 46.0339 51.5305 47.619 49.307 47.619H6.66311C4.43965 47.619 2.66525 46.0339 2.66525 44.0476V5.95238C2.66525 3.96609 4.43965 2.38095 6.66311 2.38095ZM13.3262 8.34728C11.8667 8.34728 10.5533 8.737 9.58083 9.46801C8.60833 10.199 8.01135 11.2911 8.01135 12.4605C8.01135 14.6833 10.1696 16.4162 12.915 16.5876L12.9202 16.5899C13.051 16.6298 13.188 16.651 13.3262 16.6527C16.3553 16.6527 18.6411 14.7572 18.6411 12.4605C18.6409 12.4395 18.64 12.4186 18.6385 12.3977C18.5029 10.1355 16.2453 8.34728 13.3262 8.34728ZM13.3262 10.7003C15.1815 10.7003 15.9141 11.4405 15.9941 12.4907C15.9779 13.51 15.272 14.2997 13.3262 14.2997C11.48 14.2997 10.6454 13.455 10.6454 12.4605C10.6454 11.9632 10.8485 11.5884 11.2752 11.2677C11.702 10.9469 12.387 10.7003 13.3262 10.7003ZM9.32836 17.8571C8.97494 17.8572 8.636 17.9826 8.38609 18.2059C8.13618 18.4291 7.99577 18.7319 7.99574 19.0476V41.6667C7.99577 41.9824 8.13618 42.2852 8.38609 42.5084C8.636 42.7317 8.97494 42.8571 9.32836 42.8571H17.3241C17.6775 42.8571 18.0165 42.7317 18.2664 42.5084C18.5163 42.2852 18.6567 41.9824 18.6567 41.6667V34.6842V19.0476C18.6567 18.7319 18.5163 18.4291 18.2664 18.2059C18.0165 17.9826 17.6775 17.8572 17.3241 17.8571H9.32836ZM21.322 17.8571C20.9685 17.8572 20.6296 17.9826 20.3797 18.2059C20.1298 18.4291 19.9894 18.7319 19.9893 19.0476V41.6667C19.9894 41.9824 20.1298 42.2852 20.3797 42.5084C20.6296 42.7317 20.9685 42.8571 21.322 42.8571H29.3177C29.6711 42.8571 30.0101 42.7317 30.26 42.5084C30.5099 42.2852 30.6503 41.9824 30.6503 41.6667V29.7619C30.6503 28.7742 30.952 27.7917 31.4832 27.1484C32.0144 26.5052 32.6845 26.1191 33.9585 26.1393C35.2721 26.1595 35.9675 26.5615 36.4936 27.1926C37.0196 27.8237 37.3134 28.7698 37.3134 29.7619V41.6667C37.3135 41.9824 37.4539 42.2852 37.7038 42.5084C37.9537 42.7317 38.2926 42.8571 38.6461 42.8571H46.6418C46.9952 42.8571 47.3342 42.7317 47.5841 42.5084C47.834 42.2852 47.9744 41.9824 47.9744 41.6667V28.883C47.9744 25.3574 46.8054 22.5647 44.8016 20.6752C42.7978 18.7858 40.0109 17.8571 37.0636 17.8571C34.2624 17.8571 32.1307 18.6963 30.6503 19.5522V19.0476C30.6503 18.7319 30.5099 18.4291 30.26 18.2059C30.0101 17.9826 29.6711 17.8572 29.3177 17.8571H21.322ZM10.661 20.2381H15.9915V34.6842V40.4762H10.661V20.2381ZM22.6546 20.2381H27.9851V22.0959C27.9852 22.3455 28.0731 22.5888 28.2364 22.7914C28.3997 22.9939 28.6301 23.1455 28.8951 23.2247C29.1602 23.3038 29.4463 23.3066 29.7132 23.2325C29.98 23.1585 30.2141 23.0114 30.3822 22.812C30.3822 22.812 32.4749 20.2381 37.0636 20.2381C39.4001 20.2381 41.4037 20.9316 42.8678 22.3121C44.3318 23.6926 45.3092 25.8194 45.3092 28.883V40.4762H39.9787V29.7619C39.9787 28.373 39.6062 26.937 38.633 25.7696C37.6599 24.6022 36.0232 23.7894 34.0053 23.7584C31.977 23.7262 30.3139 24.5559 29.3385 25.7371C28.3632 26.9182 27.9851 28.3687 27.9851 29.7619V40.4762H22.6546V20.2381Z" fill="#5E17EB"/>
</svg>
