<svg width="38" height="38" viewBox="0 0 38 38" fill="none" xmlns="http://www.w3.org/2000/svg">
<path d="M17.8906 34.3359C15.8333 34.2318 13.9062 33.75 12.1094 32.8906C10.3125 32.0312 8.75 30.9049 7.42188 29.5117C6.09375 28.1185 5.04557 26.5004 4.27734 24.6575C3.50911 22.8145 3.125 20.8454 3.125 18.75C3.125 16.5885 3.53516 14.5573 4.35547 12.6562C5.17578 10.7552 6.28906 9.10156 7.69531 7.69531C9.10156 6.28906 10.7552 5.17578 12.6562 4.35547C14.5573 3.53516 16.5885 3.125 18.75 3.125C22.6302 3.125 26.0026 4.34896 28.8672 6.79688C31.7318 9.24479 33.4896 12.3177 34.1406 16.0156H31.7578C31.3151 13.8281 30.3906 11.875 28.9844 10.1562C27.5781 8.4375 25.8203 7.14844 23.7109 6.28906V6.99219C23.7109 7.90365 23.3984 8.69792 22.7734 9.375C22.1484 10.0521 21.3802 10.3906 20.4688 10.3906H17.0703V13.7891C17.0703 14.2207 16.8945 14.5825 16.543 14.8745C16.1914 15.1665 15.7943 15.3125 15.3516 15.3125H12.1094V18.75H16.4062V23.6328H13.7891L5.82031 15.6641C5.6901 16.1849 5.59896 16.7014 5.54688 17.2136C5.49479 17.7257 5.46875 18.2378 5.46875 18.75C5.46875 22.2656 6.65365 25.2995 9.02344 27.8516C11.3932 30.4036 14.349 31.7839 17.8906 31.9922V34.3359ZM33.2031 33.3203L27.9688 28.0859C27.4219 28.4766 26.8294 28.776 26.1914 28.9844C25.5534 29.1927 24.9015 29.2969 24.2357 29.2969C22.3864 29.2969 20.8145 28.6508 19.5199 27.3587C18.2254 26.0666 17.5781 24.4976 17.5781 22.6516C17.5781 20.8058 18.2242 19.2383 19.5163 17.9492C20.8084 16.6602 22.3774 16.0156 24.2234 16.0156C26.0692 16.0156 27.6367 16.6629 28.9258 17.9574C30.2148 19.252 30.8594 20.8239 30.8594 22.6732C30.8594 23.339 30.7487 23.9909 30.5273 24.6289C30.306 25.2669 30.013 25.8724 29.6484 26.4453L34.8828 31.6406L33.2031 33.3203ZM24.2132 26.9531C25.4148 26.9531 26.4323 26.5383 27.2656 25.7086C28.099 24.879 28.5156 23.8633 28.5156 22.6618C28.5156 21.4602 28.1008 20.4427 27.2711 19.6094C26.4415 18.776 25.4258 18.3594 24.2243 18.3594C23.0227 18.3594 22.0052 18.7742 21.1719 19.6039C20.3385 20.4335 19.9219 21.4492 19.9219 22.6507C19.9219 23.8523 20.3367 24.8698 21.1664 25.7031C21.996 26.5365 23.0117 26.9531 24.2132 26.9531Z" fill="#5E17EB"/>
</svg>
